<?xml version="1.0" ?>
<svg viewBox="0 0 500 250" xmlns="http://www.w3.org/2000/svg">
    <style>
    text { font-family: "Helvetica Neue", Helvetica, Arial, sans-serif; font-size: 10px; }
    text.title { font-size: 15px; }
    line, rect { stroke: #000; }
    line { stroke-width: 2; }
    rect { width: 20px; height: 20px; }
    rect, line.desc, line.dash { stroke-width: 1; }
    rect.rogue, line.dash { stroke-dasharray: 2, 2; }
    rect.bg { stroke-width: 0; fill: #FFF; width: 100%; height: 100%; }
    g.free > rect { fill: #CCC; }
    g.used > rect { fill: #6E6; }
    g.heap > rect { fill: #6CF; }
    g.data > rect { fill: #F80; }
    g.text > rect { fill: #FF0; width: 10px; }
    g.uaf  > rect { fill: #D6D !important; }
    rect.free { fill: #CCC !important; }
    rect.used { fill: #6E6 !important; }
    rect.heap { fill: #6CF !important; }
    rect.data { fill: #F80 !important; }
    rect.text { fill: #FF0 !important; }
    rect.uaf  { fill: #D6D !important; }
    rect.rogue { fill: none !important; }
    </style>
    <defs>
        <marker id="arrow" markerWidth="10" markerHeight="10" refX="0" refY="3" orient="auto" markerUnits="userSpaceOnUse">
            <path d="M0,0 L0,6 L9,3" fill="#000" />
        </marker>
    </defs>

    <!-- background -->
    <rect x="0" y="0" class="bg" />

    <!-- title -->
    <text x="50%" y="30" class="title" text-anchor="middle">Reference to freelist node</text>

    <!-- legend -->
    <rect x="20" y="30" class="free" />
    <text x="45" y="44">8 bytes</text>

    <!-- heads -->
    <text x="25%" y="65" text-anchor="middle">freelist head</text>
    <text x="75%" y="65" text-anchor="middle">objsArray entry</text>

    <!-- one -->
    <line x1="100" y1="68" x2="93" y2="82" marker-end="url(#arrow)" />
    <g transform="translate(80 90)" class="free">
        <rect x="0"  y="0" />
        <rect x="20" y="0" />
        <rect x="40" y="0" />
        <rect x="60" y="0" />
    </g>

    <!-- two -->
    <line x1="90" y1="110" x2="73" y2="142" marker-end="url(#arrow)" />
    <g transform="translate(60 150)" class="free">
        <rect x="0"  y="0" />
        <rect x="20" y="0" />
        <rect x="40" y="0" />
        <rect x="60" y="0" />
    </g>

    <!-- three -->
    <line x1="70" y1="170" x2="104" y2="204" marker-end="url(#arrow)" />
    <g transform="translate(100 210)" class="free">
        <rect x="0"  y="0" />
        <rect x="20" y="0" />
        <rect x="40" y="0" />
        <rect x="60" y="0" />
    </g>

    <!-- legend -->
    <text x="75%" y="65" text-anchor="middle">objsArray entry</text>
    <g transform="translate(248 65)">
        <text x="0" y="0" text-anchor="middle">
            <tspan x="0" dy="1.2em">interpreted as</tspan>
            <tspan x="0" dy="1.2em">vtable pointer</tspan>
        </text>
    </g>

    <!-- four -->
    <line x1="340" y1="68"  x2="316" y2="85"  marker-end="url(#arrow)" />
    <line x1="111" y1="210" x2="292" y2="104" marker-end="url(#arrow)" />
    <line x1="280" y1="80" x2="300" y2="95" class="desc" />
    <g transform="translate(300 90)" class="free">
        <rect x="0"  y="0" />
        <rect x="20" y="0" />
        <rect x="40" y="0" />
        <rect x="60" y="0" />
    </g>

    <!-- legend -->
    <g transform="translate(350 125)">
        <text x="0" y="0" text-anchor="start">
            <tspan x="0" dy="1.2em">interpreted as</tspan>
            <tspan x="0" dy="1.2em">->retain() pointer</tspan>
        </text>
    </g>

    <!-- five -->
    <line x1="310" y1="110" x2="275" y2="163" marker-end="url(#arrow)" />
    <line x1="370" y1="150" x2="350" y2="170" class="desc" />
    <g transform="translate(260 170)" class="free">
        <rect x="0"  y="0" />
        <rect x="20" y="0" />
        <rect x="40" y="0" />
        <rect x="60" y="0" />
        <rect x="80" y="0" class="rogue" style="width:80px" />
        <line x1="100" y1="0" x2="100" y2="20" class="dash" />
        <line x1="120" y1="0" x2="120" y2="20" class="dash" />
        <line x1="140" y1="0" x2="140" y2="20" class="dash" />
    </g>
</svg>
