<?xml version="1.0" ?>
<svg viewBox="0 0 500 250" xmlns="http://www.w3.org/2000/svg">
    <style>
    text { font-family: "Helvetica Neue", Helvetica, Arial, sans-serif; font-size: 10px; }
    text.title { font-size: 15px; }
    line, rect { stroke: #000; }
    line { stroke-width: 2; }
    rect { width: 20px; height: 20px; }
    rect, line.desc, line.dash { stroke-width: 1; }
    rect.rogue, line.dash { stroke-dasharray: 2, 2; }
    rect.bg { stroke-width: 0; fill: #FFF; width: 100%; height: 100%; }
    g.free > rect { fill: #CCC; }
    g.used > rect { fill: #6E6; }
    g.heap > rect { fill: #6CF; }
    g.data > rect { fill: #F80; }
    g.text > rect { fill: #FF0; width: 10px; }
    g.uaf  > rect { fill: #D6D !important; }
    rect.free { fill: #CCC !important; }
    rect.used { fill: #6E6 !important; }
    rect.heap { fill: #6CF !important; }
    rect.data { fill: #F80 !important; }
    rect.text { fill: #FF0 !important; }
    rect.uaf  { fill: #D6D !important; }
    rect.rogue { fill: none !important; }
    </style>
    <defs>
        <marker id="arrow" markerWidth="10" markerHeight="10" refX="0" refY="3" orient="auto" markerUnits="userSpaceOnUse">
            <path d="M0,0 L0,6 L9,3" fill="#000" />
        </marker>
    </defs>

    <!-- background -->
    <rect x="0" y="0" class="bg" />
    <line x1="50%" y1="0%" x2="50%" y2="100%" class="desc" />

    <!-- left half -->
    <text x="25%" y="30" class="title" text-anchor="middle">allocated C++ objects</text>

    <!-- legend -->
    <rect x="20" y="40" class="free" />
    <text x="45" y="54">8 bytes</text>

    <!-- OSString -->
    <text x="75"  y="104" text-anchor="end">OSString</text>
    <text x="100" y="70">vtable pointer</text>
    <line x1="100" y1="70" x2="90" y2="90" class="desc" />
    <g transform="translate(80 90)" class="heap">
        <rect x="0"  y="0" />
        <rect x="20" y="0" />
        <rect x="40" y="0" />
        <rect x="60" y="0" />
    </g>

    <!-- vtable -->
    <line x1="90" y1="110" x2="90" y2="141" marker-end="url(#arrow)" />
    <text x="75"  y="164" text-anchor="end">vtable</text>
    <text x="160" y="130">->retain() pointer</text>
    <line x1="180" y1="135" x2="170" y2="150" class="desc" />
    <g transform="translate(80 150)" class="data">
        <rect x="0"  y="0" />
        <rect x="20" y="0" />
        <rect x="40" y="0" />
        <rect x="60" y="0" />
        <rect x="80" y="0" />
        <line x1="100" y1="0" x2="110" y2="0" class="dash" />
        <line x1="100" y1="20" x2="110" y2="20" class="dash" />
    </g>

    <!-- __text -->
    <line x1="170" y1="170" x2="122" y2="204" marker-end="url(#arrow)" />
    <text x="65" y="224" text-anchor="end">__text</text>
    <g transform="translate(70 210)" class="text">
        <line x1="0" y1="0"  x2="10" y2="0"  class="dash" />
        <line x1="0" y1="20" x2="10" y2="20" class="dash" />
        <rect x="10"  y="0" />
        <rect x="20"  y="0" />
        <rect x="30"  y="0" />
        <rect x="40"  y="0" />
        <rect x="50"  y="0" />
        <rect x="60"  y="0" />
        <rect x="70"  y="0" />
        <rect x="80"  y="0" />
        <rect x="90"  y="0" />
        <rect x="100" y="0" />
        <rect x="110" y="0" />
        <rect x="120" y="0" />
        <rect x="130" y="0" />
        <rect x="140" y="0" />
        <line x1="150" y1="0"  x2="160" y2="0"  class="dash" />
        <line x1="150" y1="20" x2="160" y2="20" class="dash" />
    </g>

    <!-- right half -->
    <text x="75%" y="30" class="title" text-anchor="middle">kalloc.32 freelist</text>

    <!-- legend -->
    <rect x="270" y="40" class="free" />
    <text x="295" y="54">8 bytes</text>

    <!-- head -->
    <text x="75%" y="65" text-anchor="middle">head</text>

    <!-- one -->
    <line x1="75%" y1="68" x2="345" y2="85" marker-end="url(#arrow)" />
    <g transform="translate(330 90)" class="free">
        <rect x="0"  y="0" />
        <rect x="20" y="0" />
        <rect x="40" y="0" />
        <rect x="60" y="0" />
    </g>

    <!-- two -->
    <line x1="340" y1="110" x2="374" y2="143" marker-end="url(#arrow)" />
    <g transform="translate(370 150)" class="free">
        <rect x="0"  y="0" />
        <rect x="20" y="0" />
        <rect x="40" y="0" />
        <rect x="60" y="0" />
    </g>

    <!-- three -->
    <line x1="380" y1="170" x2="363" y2="202" marker-end="url(#arrow)" />
    <g transform="translate(350 210)" class="free">
        <rect x="0"  y="0" />
        <rect x="20" y="0" />
        <rect x="40" y="0" />
        <rect x="60" y="0" />
    </g>

    <!-- desc -->
    <g transform="translate(270 145)">
        <text x="0" y="0">
            <tspan x="0" dy="1.2em">pointer to next</tspan>
            <tspan x="0" dy="1.2em">node in freelist</tspan>
        </text>
    </g>
    <line x1="325" y1="145" x2="335" y2="110" class="desc" />
    <line x1="340" y1="160" x2="370" y2="160" class="desc" />
    <line x1="330" y1="175" x2="355" y2="210" class="desc" />
</svg>
